<svg width="1440" height="1256" viewBox="0 0 1440 1256" fill="none" xmlns="http://www.w3.org/2000/svg">
<g clip-path="url(#clip0_2_2)">
<g clip-path="url(#clip1_2_2)">
<path d="M477 1325.16L524.069 1305.38C571.139 1285.59 665.277 1246.02 721.852 1186.15C778.779 1126.46 797.262 1046 835.362 976.144C872.935 906 930.126 846.459 981.774 783.923C1033.95 721.672 1080.58 656.426 1095.28 573.918C1109.63 491.221 1091.17 390.788 1124.34 318.266C1157.16 245.554 1242.51 201.23 1284.56 178.735L1326.97 156.43L1439.57 217.294L1420.65 252.294C1401.73 287.295 1363.9 357.297 1326.06 427.298C1288.22 497.3 1250.39 567.301 1212.55 637.302C1174.71 707.304 1136.88 777.305 1099.04 847.307C1061.2 917.308 1023.37 987.31 985.53 1057.31C947.693 1127.31 909.856 1197.31 872.02 1267.32C834.183 1337.32 796.346 1407.32 777.428 1442.32L758.509 1477.32L477 1325.16Z" fill="#2F314B"/>
</g>
<ellipse cx="1247.79" cy="846.099" rx="225.743" ry="236.31" transform="rotate(-91.5284 1247.79 846.099)" fill="#2F314B"/>
<ellipse cx="1198.84" cy="1114.39" rx="225.743" ry="335.942" transform="rotate(-91.5284 1198.84 1114.39)" fill="#2F314B"/>
<g clip-path="url(#clip2_2_2)">
<path d="M149.993 212.079L186.876 236.499C223.156 261.285 297.83 309.576 338.838 378.268C380.751 446.412 388.999 534.957 398.756 622.587C408.513 710.217 416.76 798.761 474.827 857.116C532.895 915.471 637.762 945.465 719.984 989.182C802.206 1032.9 858.763 1092.17 932.984 1140.73C1006.6 1189.67 1096.37 1228.81 1141.26 1248.38L1186.14 1267.95L703.043 1560.7L682.312 1526.49C661.582 1492.29 620.122 1423.87 578.661 1355.45C537.2 1287.03 495.74 1218.61 454.279 1150.2C412.819 1081.78 371.358 1013.36 329.898 944.942C288.437 876.524 246.977 808.106 205.516 739.688C164.056 671.27 122.595 602.852 81.1345 534.434C39.674 466.016 -1.78656 397.598 -22.5168 363.389L-43.2471 329.18L149.993 212.079Z" fill="#5A45FF"/>
</g>
<ellipse cx="-54.4885" cy="486.644" rx="349.029" ry="294.573" transform="rotate(-34.5251 -54.4885 486.644)" fill="#5A45FF"/>
<ellipse cx="136.82" cy="972.631" rx="366.092" ry="319.644" transform="rotate(-122.998 136.82 972.631)" fill="#5A45FF"/>
<ellipse cx="1418.25" cy="443.014" rx="299.125" ry="317.15" transform="rotate(-91.5284 1418.25 443.014)" fill="#2F314B"/>
<path d="M0 1162L80 1130C160 1098 320 1034 480 1018C640 1002 800 1034 960 1055.3C1120 1077 1280 1087 1360 1092.7L1440 1098V1258H1360C1280 1258 1120 1258 960 1258C800 1258 640 1258 480 1258C320 1258 160 1258 80 1258H0V1162Z" fill="#0B0D1B"/>
</g>
<defs>
<clipPath id="clip0_2_2">
<rect width="1440" height="1256" fill="white"/>
</clipPath>
<clipPath id="clip1_2_2">
<rect width="1432.31" height="320" fill="white" transform="translate(477 1325.16) rotate(-61.6081)"/>
</clipPath>
<clipPath id="clip2_2_2">
<rect width="1440" height="564.879" fill="white" transform="translate(440.166 24.4312) rotate(58.7846)"/>
</clipPath>
</defs>
</svg>
